<svg width="35" height="34" viewBox="0 0 35 34" fill="none" xmlns="http://www.w3.org/2000/svg">
<rect width="34.5946" height="34" rx="12" fill="#FCB045"/>
<path fill-rule="evenodd" clip-rule="evenodd" d="M29.5946 5H5V17.7841H6.3208V6.28886H28.2738V10.5275H26.0842V10.5367H26.0684C26.0096 10.6515 25.8861 10.9096 25.698 11.3113C25.5098 11.7129 25.2776 12.2006 25.0012 12.7743C24.7249 13.3481 24.4162 13.9821 24.0752 14.6763C23.7342 15.3706 23.3901 16.0734 23.0433 16.7848C22.6964 17.4963 22.3524 18.1876 22.0114 18.859C21.6704 19.5302 21.3647 20.1241 21.0941 20.6404L15.7143 10.5367H14.0915L21.0941 23.446L27.1009 11.7853H29.5927V11.7718H29.5946V5ZM5 22.1961H5.0061V22.1819H13.4704L7.42401 10.5367H9.0997L14.8499 22.0175L14.1268 23.446L14.1157 23.4247V23.4398H6.3208V27.7111H28.2738V16.1838H29.5946V29H5V22.1961Z" fill="#0E1014"/>
</svg>
